<?xml version="1.0" standalone="no"?>
<!DOCTYPE svg PUBLIC "-//W3C//DTD SVG 20010904//EN"
 "http://www.w3.org/TR/2001/REC-SVG-20010904/DTD/svg10.dtd">
<svg version="1.0" xmlns="http://www.w3.org/2000/svg"
 width="300.000000pt" height="300.000000pt" viewBox="0 0 300.000000 300.000000"
 preserveAspectRatio="xMidYMid meet">
<metadata>
Created by potrace 1.10, written by Peter Selinger 2001-2011
</metadata>
<g transform="translate(0.000000,300.000000) scale(0.100000,-0.100000)"
fill="#000000" stroke="none">
<path d="M885 2901 c-11 -5 -29 -19 -40 -31 -18 -20 -20 -39 -23 -191 -2 -122
-7 -169 -15 -169 -30 0 -137 -62 -188 -108 -55 -50 -118 -153 -133 -214 l-6
-27 -164 -3 c-147 -3 -166 -5 -186 -23 -33 -29 -42 -62 -30 -101 19 -58 41
-64 215 -64 l155 0 0 -190 0 -190 -156 0 c-92 0 -164 -4 -176 -11 -11 -6 -26
-26 -34 -45 -12 -29 -12 -39 0 -68 8 -19 23 -39 34 -45 12 -7 84 -11 176 -11
l156 0 0 -190 0 -190 -158 0 c-176 0 -192 -5 -212 -64 -12 -39 -3 -71 30 -101
20 -18 39 -20 186 -23 l164 -3 6 -27 c15 -61 78 -164 133 -214 51 -46 158
-108 188 -108 8 0 13 -47 15 -169 3 -152 5 -171 23 -191 30 -33 62 -42 102
-29 55 18 63 47 63 219 l0 150 200 0 200 0 0 -156 c0 -92 4 -164 11 -176 6
-11 26 -26 45 -34 29 -12 39 -12 68 0 19 8 39 23 45 34 7 12 11 84 11 176 l0
156 180 0 180 0 0 -158 c0 -176 5 -192 64 -212 39 -12 71 -3 101 30 18 20 20
39 23 185 l4 163 31 6 c58 11 151 62 208 114 55 50 118 153 133 214 l6 27 164
3 c147 3 166 5 186 23 33 30 42 62 30 101 -20 59 -36 64 -212 64 l-158 0 0
190 0 190 156 0 c92 0 164 4 176 11 11 6 26 26 34 45 12 29 12 39 0 68 -8 19
-23 39 -34 45 -12 7 -84 11 -176 11 l-156 0 0 190 0 190 158 0 c176 0 192 5
212 64 12 39 3 71 -30 101 -20 18 -39 20 -186 23 l-164 3 -6 27 c-15 61 -78
164 -133 214 -57 52 -150 103 -208 114 l-31 6 -4 163 c-3 146 -5 165 -23 185
-30 33 -62 42 -101 30 -59 -20 -64 -36 -64 -212 l0 -158 -180 0 -180 0 0 156
c0 92 -4 164 -11 176 -6 11 -26 26 -45 34 -29 12 -39 12 -68 0 -19 -8 -39 -23
-45 -34 -7 -12 -11 -84 -11 -176 l0 -156 -200 0 -200 0 0 150 c0 170 -8 201
-61 219 -36 13 -37 13 -64 2z m1300 -586 c50 -25 105 -80 130 -130 19 -39 20
-64 20 -685 0 -621 -1 -646 -20 -685 -25 -50 -80 -105 -130 -130 -39 -19 -64
-20 -685 -20 -621 0 -646 1 -685 20 -50 25 -105 80 -130 130 -19 38 -20 67
-23 665 -2 453 0 636 9 665 23 81 87 148 174 182 22 9 195 11 665 10 609 -2
637 -3 675 -22z"/>
<path d="M1067 2149 c-94 -22 -169 -88 -203 -175 -18 -45 -19 -81 -19 -474 0
-394 1 -429 19 -474 25 -66 84 -128 149 -157 l52 -24 435 0 435 0 52 24 c65
29 124 91 149 157 18 45 19 80 19 474 0 394 -1 429 -19 474 -25 66 -84 128
-149 157 -52 24 -54 24 -467 26 -228 1 -432 -3 -453 -8z m852 -193 c50 -26 51
-38 51 -456 0 -418 -1 -430 -51 -456 -41 -21 -797 -21 -838 0 -50 26 -51 37
-51 459 1 419 1 426 51 453 36 20 799 20 838 0z"/>
</g>
</svg>
